# xmcd CD database file
#
# Track frame offsets:
#	150
#	28686
#	55625
#	84103
#	104356
#	124157
#	157484
#	194819
#	224738
#
# Disc length: 3409 seconds
#
# Revision: 0
# Processed by: cddbd v1.5.2PL0 Copyright (c) Steve Scherf et al.
# Submitted via: CDex 1.60beta1-cs1
#
DISCID=840d4f09
DTITLE=KAHIBA (Kalnein Hilbe Bakanic) - Global Dialects
DYEAR=2009
DGENRE=Jazz
TTITLE0=Horizonte
TTITLE1=Bailando
TTITLE2=Derni￨re Route
TTITLE3=Fellini
TTITLE4=Rejoycing
TTITLE5=Cushion
TTITLE6=Prism
TTITLE7=Early Morning Tea
TTITLE8=Lazy
EXTD=YEAR: 2009
EXTT0=
EXTT1=
EXTT2=
EXTT3=
EXTT4=
EXTT5=
EXTT6=
EXTT7=
EXTT8=
PLAYORDER=
